<svg width="100" height="101" xmlns="http://www.w3.org/2000/svg" xmlns:xlink="http://www.w3.org/1999/xlink" overflow="hidden"><defs><clipPath id="clip0"><rect x="171" y="21" width="100" height="101"/></clipPath></defs><g clip-path="url(#clip0)" transform="translate(-171 -21)"><path d="M637.5 687.5 595.833 687.5C595.833 694.792 600.5 701.135 607.292 704.229L607.292 722.917 626.042 722.917 626.042 704.229C632.833 701.135 637.5 694.792 637.5 687.5Z" transform="matrix(1 0 0 1.01 -395.667 -615.51)"/><path d="M593.844 650 595.833 671.875C596.219 674.865 597.802 678.833 603.469 679.167 600.43 674.145 598.867 668.369 598.958 662.5 598.958 655.042 601.292 648.333 604.969 643.75L592.708 643.75C591.557 643.75 590.625 644.682 590.625 645.833L590.625 647.917C590.625 649.068 591.557 650 592.708 650Z" transform="matrix(1 0 0 1.01 -395.667 -615.51)"/><path d="M640.625 643.75 628.365 643.75C632.042 648.333 634.375 655.042 634.375 662.5 634.467 668.369 632.903 674.145 629.865 679.167 635.531 678.865 637.156 674.896 637.5 671.875L639.49 650 640.625 650C641.776 650 642.708 649.068 642.708 647.917L642.708 645.833C642.708 644.682 641.776 643.75 640.625 643.75Z" transform="matrix(1 0 0 1.01 -395.667 -615.51)"/><path d="M638.542 679.167 624.76 679.167C628.062 675.365 630.208 669.323 630.208 662.5 630.208 651.042 624.135 641.667 616.667 641.667 609.198 641.667 603.125 651.042 603.125 662.5 603.125 669.323 605.271 675.365 608.573 679.167L594.792 679.167C593.641 679.167 592.708 680.099 592.708 681.25 592.708 682.401 593.641 683.333 594.792 683.333L638.542 683.333C639.693 683.333 640.625 682.401 640.625 681.25 640.625 680.099 639.693 679.167 638.542 679.167Z" transform="matrix(1 0 0 1.01 -395.667 -615.51)"/></g></svg>