<svg width="100" height="100" xmlns="http://www.w3.org/2000/svg" xmlns:xlink="http://www.w3.org/1999/xlink" overflow="hidden"><defs><clipPath id="clip0"><rect x="171" y="109" width="100" height="100"/></clipPath></defs><g clip-path="url(#clip0)" transform="translate(-171 -109)"><path d="M198.083 153.792C198.083 157.244 195.285 160.042 191.833 160.042 188.381 160.042 185.583 157.244 185.583 153.792 185.583 150.34 188.381 147.542 191.833 147.542 195.285 147.542 198.083 150.34 198.083 153.792Z"/><path d="M199.125 160.042 211.625 160.042 211.625 149.625 209.542 149.625C203.812 149.625 199.125 154.312 199.125 160.042Z"/><path d="M262.667 149.625 214.75 149.625 214.75 174.625C214.75 176.917 216.625 178.792 218.917 178.792L260.583 178.792 260.583 184 266.833 184 266.833 153.792C266.833 151.5 264.958 149.625 262.667 149.625Z"/><path d="M181.417 137.125C181.417 135.354 180.062 134 178.292 134 176.521 134 175.167 135.354 175.167 137.125L175.167 184 181.417 184 181.417 173.583 211.625 173.583 211.625 163.167 181.417 163.167 181.417 137.125Z"/></g></svg>